<svg id="图层_1" data-name="图层 1" xmlns="http://www.w3.org/2000/svg" viewBox="0 0 213.93 213.93"><defs><style>.cls-1{fill:#bbb;}</style></defs><title>美元</title><path class="cls-1" d="M306,289a107,107,0,1,0,107,107A107,107,0,0,0,306,289Zm0,196.36A89.39,89.39,0,1,1,395.36,396,89.39,89.39,0,0,1,306,485.36ZM340,363.1a7.37,7.37,0,0,1-14,4.67c-1.76-5.24-8.06-11.36-20.05-11.36-9.93,0-15.82,6.68-16.51,13.28-.84,8.11,6.07,14.71,18,17.21,23.92,5,30.93,21,29.67,33.17-1.32,12.74-11.07,22.81-23.81,25.66V455a7.38,7.38,0,0,1-14.75,0v-9c-15.2-2.45-23.79-12.27-26.66-20.85a7.38,7.38,0,0,1,14-4.67c1.76,5.24,8.06,11.36,20.05,11.36,9.93,0,15.82-6.68,16.51-13.27.84-8.12-6.07-14.71-18-17.21-23.92-5-30.93-21-29.67-33.17,1.32-12.74,11.06-22.81,23.81-25.67v-9.24a7.38,7.38,0,0,1,14.75,0v9c15.2,2.45,23.79,12.27,26.66,20.85Zm0,0" transform="translate(-199 -289)"/></svg>