<svg xmlns="http://www.w3.org/2000/svg" viewBox="0 0 287.75 72.46"><defs><style>.cls-1{fill:#ffc200;}</style></defs><title>资源 5</title><g id="图层_2" data-name="图层 2"><g id="图层_1-2" data-name="图层 1"><polygon class="cls-1" points="98.2 54.25 89.02 45.08 53.35 58.63 21.28 26.68 57.05 13.1 47.86 3.93 6.11 19.79 6.14 19.82 0 22.16 50.49 72.46 62.57 67.82 62.54 67.79 98.2 54.25"/><polygon points="81.17 12.31 73.82 15.13 58.11 0 21.29 14.05 21.29 26.68 63.96 10.46 70.15 16.54 30.64 31.69 30.64 44.32 86.95 22.93 98.83 34.74 51.62 52.67 51.62 65.3 102.5 45.97 102.5 33.34 81.17 12.31"/><path class="cls-1" d="M159.74,16.73A35.06,35.06,0,0,0,155.5,19a6,6,0,0,1,1,.81,5.77,5.77,0,0,1,0,8.16,5.55,5.55,0,0,1-4.07,1.68A5.86,5.86,0,0,1,147,26c-.27.26-.54.52-.8.79-.85.89-1.42,2.05-2.3,2.9a10.94,10.94,0,0,0,1.23,1.46,10.27,10.27,0,0,0,17.54-7.27A9.87,9.87,0,0,0,159.74,16.73Z"/><path d="M139.26,18.07A8.81,8.81,0,0,0,134,19.78a6.12,6.12,0,0,0-2.07,4.08A5.18,5.18,0,0,0,133.25,28c1,1.14,3.37,1.7,5,1.7l-.39,4.49c-2.85,0-6.2-1-8-3a9.14,9.14,0,0,1-2.4-7.32,10.84,10.84,0,0,1,3.67-7.27,13.46,13.46,0,0,1,8.58-3Z"/><path d="M138,34.33h-.13c-3.24,0-6.44-1.2-8.15-3.05a9.32,9.32,0,0,1-2.43-7.42A11,11,0,0,1,131,16.49a13.5,13.5,0,0,1,8.67-3h.15l-.42,4.77h-.13a8.69,8.69,0,0,0-5.2,1.67,6,6,0,0,0-2,4,5.07,5.07,0,0,0,1.31,4c1,1.08,3.25,1.66,4.89,1.66h.15Zm1.52-20.6a13.17,13.17,0,0,0-8.33,3,10.74,10.74,0,0,0-3.63,7.18,9,9,0,0,0,2.36,7.21c1.64,1.77,4.7,2.93,7.82,3l.37-4.21c-1.72,0-3.92-.63-4.94-1.75a5.34,5.34,0,0,1-1.38-4.24,6.28,6.28,0,0,1,2.11-4.18,8.8,8.8,0,0,1,5.26-1.74Z"/><path d="M171.83,13.54,170,34.23h-4.5l1.81-20.69Z"/><polygon points="177.57 13.34 177.56 13.54 177.26 16.9 175.75 34.23 180.25 34.23 181.76 16.9 191.14 16.9 189.62 34.23 194.12 34.23 195.64 16.9 195.93 13.54 195.95 13.34 177.57 13.34"/><polygon points="156.54 41.25 147.65 58.51 151.87 58.51 158.45 46.17 162.85 58.51 167.09 58.51 161.22 41.25 156.54 41.25"/><polygon points="127.25 42.1 126.94 45.59 125.81 58.51 129.38 58.51 130.51 45.59 134.9 45.59 133.77 58.51 137.34 58.51 138.47 45.59 142.86 45.59 141.73 58.51 145.29 58.51 146.42 45.59 146.42 45.59 146.74 42.02 127.25 42.02 127.25 42.1"/><polygon points="205.02 39.14 194.86 44.41 195.16 40.99 190.94 40.99 190.02 51.5 207.26 42.56 205.02 39.14"/><path d="M182.26,40.84H171.55l-.34,3.94h10.71a1.18,1.18,0,0,1,1.13.68,1.23,1.23,0,0,1,0,.8,2.4,2.4,0,0,1-2.29,1.69h-9.85L170,58.51h3.94l.58-6.63h3.05l3.09,6.63h4.5L182,51.69a6.76,6.76,0,0,0,4.9-4.73,5.1,5.1,0,0,0-.14-3.2A4.72,4.72,0,0,0,182.26,40.84Z"/><polygon points="189.85 53.52 189.42 58.4 197.93 53.52 201.99 58.51 207.67 58.51 199.22 48.16 189.85 53.52"/><polygon points="211.24 44.53 227.62 44.53 226.76 40.59 211.58 40.59 211.24 44.53"/><polygon points="210.1 58.51 226.4 58.51 225.53 54.57 214.38 54.57 214.68 51.16 227.04 51.16 226.18 47.22 211.09 47.22 210.1 58.51"/><polygon points="245.38 40.31 230.43 40.31 230.03 44.81 235.26 44.81 234.06 58.51 238.56 58.51 239.76 44.81 244.98 44.81 245.38 40.31"/><path class="cls-1" d="M156,29.19a14.14,14.14,0,0,1-1.56,1c-.54.31-1.09.61-1.65.88-1.12.55-2.27,1-3.44,1.49a29.33,29.33,0,0,1-3.63,1.15,10.63,10.63,0,0,1-2,.3,4,4,0,0,1-1.15-.1,2.09,2.09,0,0,1-.7-.32l-.19-.16a1.77,1.77,0,0,1-.16-.19,2,2,0,0,1-.23-.39,2.73,2.73,0,0,1-.16-1.46,5.65,5.65,0,0,1,.29-1.14,11.1,11.1,0,0,1,.91-1.89,18.47,18.47,0,0,1,1.11-1.66q.59-.8,1.23-1.53A34.45,34.45,0,0,1,150.44,20a32.44,32.44,0,0,1,6.74-3.83A18.62,18.62,0,0,1,161,15a6.83,6.83,0,0,1,2.26,0,3.1,3.1,0,0,1,.68.2,2.22,2.22,0,0,1,.69.47,1.9,1.9,0,0,1,.28.37,1.77,1.77,0,0,1,.18.43,2.3,2.3,0,0,1,.07.73,4.38,4.38,0,0,1-.24,1.11,8.66,8.66,0,0,1-.39.94,17.57,17.57,0,0,1-1,1.7c-.35.54-.71,1.06-1.08,1.57s-.77,1-1.16,1.49A31.87,31.87,0,0,1,156,29.19Zm0,0a21.18,21.18,0,0,0,5-5.5,26.55,26.55,0,0,0,1.72-3.25,12.67,12.67,0,0,0,.59-1.7c.07-.28.21-1.1.23-1.24a.44.44,0,0,0-.48-.49h0a5.11,5.11,0,0,0-1.43.36,14.84,14.84,0,0,0-1.55.7c-.52.26-1,.55-1.54.85-2,1.21-4,2.58-5.94,4s-3.82,2.92-5.59,4.5a30,30,0,0,0-2.5,2.47,10.69,10.69,0,0,0-1,1.31,3.18,3.18,0,0,0-.17.36.7.7,0,0,0,.49,1h0a8.89,8.89,0,0,0,1.74.08,20.41,20.41,0,0,0,3.63-.53A23.62,23.62,0,0,0,152.76,31,15.65,15.65,0,0,0,156,29.19Z"/><path class="cls-1" d="M143,26.32q.59-.8,1.23-1.53A32.08,32.08,0,0,1,147,22a5.85,5.85,0,0,1,5-3.81,30.82,30.82,0,0,1,4.69-2.44c.43-.17.86-.33,1.3-.49a10.31,10.31,0,0,0-15.84,8.64,10.53,10.53,0,0,0,.42,3C142.7,26.72,142.84,26.52,143,26.32Z"/><polygon points="244.95 58.08 248.24 58.08 248.53 54.78 245.23 54.78 244.95 58.08"/><polygon points="273.15 51.81 269.09 51.81 269.46 47.58 267.13 47.58 266.57 53.92 272.97 53.92 272.78 56.03 265.77 56.03 265.59 58.15 274.93 58.15 275.86 47.58 273.52 47.58 273.15 51.81"/><polygon points="261.5 47.45 259.19 50.42 257.4 47.45 254.03 47.45 257.29 52.87 253.09 58.28 256.45 58.28 258.76 55.31 260.56 58.28 263.92 58.28 260.66 52.87 264.87 47.45 261.5 47.45"/><polygon points="278.07 47.58 277.86 49.97 284.39 49.97 277.43 54.92 277.35 55.76 277.14 58.15 286.82 58.15 287.03 55.76 280.46 55.76 287.48 50.71 287.54 49.97 287.75 47.58 278.07 47.58"/></g></g></svg>