<svg xmlns="http://www.w3.org/2000/svg" viewBox="0 0 127 31.98"><defs><style>.cls-1{fill:#ffc200;}.cls-2{fill:#fff;}</style></defs><title>资源 4</title><g id="图层_2" data-name="图层 2"><g id="图层_1-2" data-name="图层 1"><polygon class="cls-1" points="43.34 23.94 39.29 19.9 23.55 25.88 9.39 11.78 25.18 5.78 21.12 1.74 2.69 8.73 2.71 8.75 0 9.78 22.29 31.98 27.62 29.93 27.6 29.92 43.34 23.94"/><polygon class="cls-2" points="35.82 5.43 32.58 6.68 25.64 0 9.4 6.2 9.4 11.78 28.23 4.62 30.96 7.3 13.52 13.99 13.52 19.56 38.38 10.12 43.62 15.33 22.78 23.25 22.78 28.82 45.24 20.29 45.24 14.71 35.82 5.43"/><path class="cls-2" d="M61.46,8a3.89,3.89,0,0,0-2.33.75,2.7,2.7,0,0,0-.91,1.8,2.29,2.29,0,0,0,.59,1.82,3.34,3.34,0,0,0,2.2.75l-.17,2a5.06,5.06,0,0,1-3.55-1.33,4,4,0,0,1-1.06-3.23,4.78,4.78,0,0,1,1.62-3.21A5.94,5.94,0,0,1,61.63,6Z"/><path class="cls-2" d="M60.9,15.15h-.06a5.07,5.07,0,0,1-3.6-1.35,4.11,4.11,0,0,1-1.07-3.28,4.86,4.86,0,0,1,1.64-3.25,6,6,0,0,1,3.83-1.34h.07L61.52,8h-.06a3.84,3.84,0,0,0-2.29.74,2.65,2.65,0,0,0-.89,1.76,2.24,2.24,0,0,0,.58,1.78A3.29,3.29,0,0,0,61,13h.07Zm.67-9.09a5.82,5.82,0,0,0-3.68,1.31,4.74,4.74,0,0,0-1.6,3.17,4,4,0,0,0,1,3.18A4.92,4.92,0,0,0,60.78,15l.16-1.86a3.33,3.33,0,0,1-2.18-.77,2.36,2.36,0,0,1-.61-1.87,2.77,2.77,0,0,1,.93-1.84,3.88,3.88,0,0,1,2.32-.77Z"/><path class="cls-2" d="M75.84,6,75,15.11h-2L73.85,6Z"/><polygon class="cls-2" points="78.37 5.89 78.37 5.98 78.24 7.46 77.57 15.11 79.55 15.11 80.22 7.46 84.36 7.46 83.69 15.11 85.68 15.11 86.35 7.46 86.47 5.98 86.48 5.89 78.37 5.89"/><polygon class="cls-2" points="69.09 18.21 65.16 25.82 67.03 25.82 69.93 20.38 71.87 25.82 73.75 25.82 71.16 18.21 69.09 18.21"/><polygon class="cls-2" points="56.16 18.58 56.03 20.12 55.53 25.82 57.1 25.82 57.6 20.12 59.54 20.12 59.04 25.82 60.61 25.82 61.11 20.12 63.05 20.12 62.55 25.82 64.13 25.82 64.63 20.12 64.63 20.12 64.76 18.55 56.16 18.55 56.16 18.58"/><polygon class="cls-2" points="90.49 17.27 86 19.6 86.14 18.09 84.27 18.09 83.87 22.73 91.47 18.78 90.49 17.27"/><path class="cls-2" d="M80.44,18H75.72l-.15,1.74h4.73a.52.52,0,0,1,.5.3.54.54,0,0,1,0,.35,1.06,1.06,0,0,1-1,.74H75.44L75,25.82h1.74L77,22.9h1.35l1.36,2.93h2l-1.4-3a3,3,0,0,0,2.16-2.09,2.25,2.25,0,0,0-.06-1.41A2.08,2.08,0,0,0,80.44,18Z"/><polygon class="cls-2" points="83.79 23.62 83.6 25.77 87.36 23.62 89.15 25.82 91.66 25.82 87.93 21.25 83.79 23.62"/><polygon class="cls-2" points="93.23 19.65 100.46 19.65 100.08 17.91 93.38 17.91 93.23 19.65"/><polygon class="cls-2" points="92.73 25.82 99.92 25.82 99.54 24.09 94.62 24.09 94.75 22.58 100.2 22.58 99.83 20.84 93.17 20.84 92.73 25.82"/><polygon class="cls-2" points="108.3 17.79 101.7 17.79 101.53 19.78 103.83 19.78 103.3 25.82 105.29 25.82 105.82 19.78 108.13 19.78 108.3 17.79"/><path class="cls-1" d="M70.5,7.38a15.46,15.46,0,0,0-1.87,1,2.66,2.66,0,0,1,.44.36,2.55,2.55,0,0,1,0,3.6,2.45,2.45,0,0,1-1.8.74,2.59,2.59,0,0,1-2.39-1.61l-.35.35c-.38.39-.62.91-1,1.28a4.83,4.83,0,0,0,.54.64,4.53,4.53,0,0,0,7.74-3.21A4.36,4.36,0,0,0,70.5,7.38Z"/><path class="cls-1" d="M68.87,12.88a6.23,6.23,0,0,1-.69.45c-.24.14-.48.27-.73.39-.49.24-1,.46-1.52.66a12.94,12.94,0,0,1-1.6.51,4.69,4.69,0,0,1-.87.13,1.75,1.75,0,0,1-.51,0,.92.92,0,0,1-.31-.14l-.08-.07-.07-.08a.86.86,0,0,1-.1-.17,1.2,1.2,0,0,1-.07-.65,2.49,2.49,0,0,1,.13-.5,4.9,4.9,0,0,1,.4-.83,8.17,8.17,0,0,1,.49-.73q.26-.35.54-.68a15.21,15.21,0,0,1,2.52-2.3,14.31,14.31,0,0,1,3-1.69,8.21,8.21,0,0,1,1.7-.51,3,3,0,0,1,1,0,1.37,1.37,0,0,1,.3.09,1,1,0,0,1,.31.21.84.84,0,0,1,.13.16.78.78,0,0,1,.08.19,1,1,0,0,1,0,.32,1.93,1.93,0,0,1-.1.49,3.83,3.83,0,0,1-.17.42,7.77,7.77,0,0,1-.42.75c-.15.24-.31.47-.48.69l-.51.66A14.06,14.06,0,0,1,68.87,12.88Zm0,0a9.35,9.35,0,0,0,2.19-2.43A11.73,11.73,0,0,0,71.82,9a5.58,5.58,0,0,0,.26-.75c0-.12.09-.49.1-.55A.19.19,0,0,0,72,7.5h0a2.25,2.25,0,0,0-.63.16,6.55,6.55,0,0,0-.69.31c-.23.12-.46.24-.68.38-.9.53-1.77,1.14-2.62,1.77s-1.68,1.29-2.47,2a13.24,13.24,0,0,0-1.1,1.09,4.72,4.72,0,0,0-.44.58l-.07.16a.31.31,0,0,0,.22.43h0a3.92,3.92,0,0,0,.77,0,9,9,0,0,0,1.6-.23,10.43,10.43,0,0,0,1.56-.49A6.91,6.91,0,0,0,68.87,12.88Z"/><path class="cls-1" d="M63.11,11.62q.26-.35.54-.68a14.17,14.17,0,0,1,1.21-1.23A2.58,2.58,0,0,1,67.08,8,13.6,13.6,0,0,1,69.15,7l.57-.21a4.55,4.55,0,0,0-7,3.81,4.65,4.65,0,0,0,.19,1.33Z"/><polygon class="cls-2" points="108.11 25.63 109.56 25.63 109.69 24.18 108.24 24.18 108.11 25.63"/><polygon class="cls-2" points="120.56 22.87 118.77 22.87 118.93 21 117.9 21 117.65 23.8 120.48 23.8 120.39 24.73 117.3 24.73 117.22 25.66 121.34 25.66 121.75 21 120.72 21 120.56 22.87"/><polygon class="cls-2" points="115.42 20.94 114.4 22.25 113.61 20.94 112.12 20.94 113.56 23.33 111.7 25.72 113.19 25.72 114.21 24.41 115 25.72 116.48 25.72 115.05 23.33 116.9 20.94 115.42 20.94"/><polygon class="cls-2" points="122.73 21 122.64 22.05 125.52 22.05 122.44 24.24 122.41 24.61 122.32 25.66 126.59 25.66 126.68 24.61 123.78 24.61 126.88 22.38 126.91 22.05 127 21 122.73 21"/></g></g></svg>